<svg width="24" height="24" viewBox="0 0 24 24" fill="none" xmlns="http://www.w3.org/2000/svg">
<path fill-rule="evenodd" clip-rule="evenodd" d="M12 0C18.6274 0 24 5.37259 24 12C24 18.6274 18.6274 24 12 24C5.37259 24 0 18.6274 0 12C0 5.37259 5.37259 0 12 0ZM7.79492 11.6816L7.00391 12.6777H6.98047L7.07422 11.0664V6.88281H6.01953V16H7.07422V13.5273L7.71289 13.0469L9.68164 16H10.9062L8.39844 12.3496L10.748 9.56641H9.51172L7.79492 11.6816ZM14.457 7.43359H12.1191V16H14.9609C15.3945 16 15.7832 15.9434 16.127 15.8301C16.4707 15.7168 16.7617 15.5547 17 15.3438C17.2422 15.1289 17.4258 14.8691 17.5508 14.5645C17.6797 14.2559 17.7441 13.9062 17.7441 13.5156C17.7441 13.1797 17.6934 12.8945 17.5918 12.6602C17.4902 12.4258 17.3516 12.2324 17.1758 12.0801C17 11.9238 16.793 11.8027 16.5547 11.7168C16.3203 11.627 16.0684 11.5586 15.7988 11.5117V11.4531C16.0684 11.418 16.3086 11.3477 16.5195 11.2422C16.7344 11.1328 16.9141 10.998 17.0586 10.8379C17.2031 10.6777 17.3125 10.4922 17.3867 10.2812C17.4648 10.0703 17.5039 9.84375 17.5039 9.60156C17.5039 9.19922 17.4395 8.86133 17.3105 8.58789C17.1816 8.31055 16.9883 8.08789 16.7305 7.91992C16.4766 7.74805 16.1582 7.625 15.7754 7.55078C15.3965 7.47266 14.957 7.43359 14.457 7.43359ZM14.6387 11.0664H13.209V8.36523H14.5156C15.1641 8.36523 15.6387 8.4668 15.9395 8.66992C16.2402 8.87305 16.3906 9.20898 16.3906 9.67773C16.3906 9.9082 16.3594 10.1113 16.2969 10.2871C16.2383 10.459 16.1406 10.6035 16.0039 10.7207C15.8672 10.834 15.6875 10.9199 15.4648 10.9785C15.2422 11.0371 14.9668 11.0664 14.6387 11.0664ZM14.7676 15.0742H13.209V11.9805H14.6973C15.0566 11.9805 15.3574 12.0176 15.5996 12.0918C15.8418 12.1621 16.0352 12.2637 16.1797 12.3965C16.3281 12.5254 16.4336 12.6816 16.4961 12.8652C16.5625 13.0488 16.5957 13.25 16.5957 13.4688C16.5957 13.707 16.5645 13.9258 16.502 14.125C16.4395 14.3203 16.3359 14.4883 16.1914 14.6289C16.0508 14.7695 15.8633 14.8789 15.6289 14.957C15.3984 15.0352 15.1113 15.0742 14.7676 15.0742ZM19.3262 14.9746C19.2871 15.0762 19.2676 15.2012 19.2676 15.3496C19.2676 15.4941 19.2871 15.6191 19.3262 15.7246C19.3652 15.8262 19.418 15.9102 19.4844 15.9766C19.5282 16.0204 19.5771 16.0565 19.6311 16.085C19.6589 16.0997 19.6882 16.1124 19.7188 16.123C19.7801 16.1444 19.8452 16.1585 19.9138 16.1652C19.9457 16.1684 19.9783 16.1699 20.0117 16.1699C20.1133 16.1699 20.209 16.1543 20.2988 16.123C20.3926 16.0918 20.4727 16.043 20.5391 15.9766C20.6055 15.9102 20.6582 15.8262 20.6973 15.7246C20.7363 15.6191 20.7559 15.4941 20.7559 15.3496C20.7559 15.2012 20.7363 15.0762 20.6973 14.9746C20.6582 14.8691 20.6055 14.7852 20.5391 14.7227C20.4727 14.6562 20.3926 14.6094 20.2988 14.582C20.209 14.5508 20.1133 14.5352 20.0117 14.5352C19.9062 14.5352 19.8086 14.5508 19.7188 14.582C19.6289 14.6094 19.5508 14.6562 19.4844 14.7227C19.418 14.7852 19.3652 14.8691 19.3262 14.9746Z" fill="#FAFAFA"/>
<path d="M7.00391 12.6777V13.1777H7.24533L7.39546 12.9887L7.00391 12.6777ZM7.79492 11.6816L7.40668 11.3665L7.40337 11.3707L7.79492 11.6816ZM9.51172 9.56641V9.06641H9.27357L9.1235 9.25131L9.51172 9.56641ZM10.748 9.56641L11.1301 9.88894L11.8245 9.06641H10.748V9.56641ZM8.39844 12.3496L8.01638 12.0271L7.7704 12.3184L7.98632 12.6327L8.39844 12.3496ZM10.9062 16V16.5H11.8564L11.3184 15.7169L10.9062 16ZM9.68164 16L9.26562 16.2774L9.41405 16.5H9.68164V16ZM7.71289 13.0469L8.12892 12.7695L7.8353 12.3291L7.4123 12.6473L7.71289 13.0469ZM7.07422 13.5273L6.77363 13.1278L6.57422 13.2778V13.5273H7.07422ZM7.07422 16V16.5H7.57422V16H7.07422ZM6.01953 16H5.51953V16.5H6.01953V16ZM6.01953 6.88281V6.38281H5.51953V6.88281H6.01953ZM7.07422 6.88281H7.57422V6.38281H7.07422V6.88281ZM7.07422 11.0664L7.57337 11.0954L7.57422 11.0809V11.0664H7.07422ZM6.98047 12.6777L6.48131 12.6487L6.45053 13.1777H6.98047V12.6777ZM7.39546 12.9887L8.18648 11.9926L7.40337 11.3707L6.61235 12.3668L7.39546 12.9887ZM8.18314 11.9967L9.89994 9.8815L9.1235 9.25131L7.4067 11.3665L8.18314 11.9967ZM9.51172 10.0664H10.748V9.06641H9.51172V10.0664ZM10.366 9.24387L8.01638 12.0271L8.7805 12.6721L11.1301 9.88894L10.366 9.24387ZM7.98632 12.6327L10.4941 16.2831L11.3184 15.7169L8.81055 12.0665L7.98632 12.6327ZM10.9062 15.5H9.68164V16.5H10.9062V15.5ZM10.0977 15.7226L8.12892 12.7695L7.29687 13.3242L9.26562 16.2774L10.0977 15.7226ZM7.4123 12.6473L6.77363 13.1278L7.3748 13.9269L8.01348 13.4464L7.4123 12.6473ZM6.57422 13.5273V16H7.57422V13.5273H6.57422ZM7.07422 15.5H6.01953V16.5H7.07422V15.5ZM6.51953 16V6.88281H5.51953V16H6.51953ZM6.01953 7.38281H7.07422V6.38281H6.01953V7.38281ZM6.57422 6.88281V11.0664H7.57422V6.88281H6.57422ZM6.57506 11.0374L6.48131 12.6487L7.47962 12.7068L7.57337 11.0954L6.57506 11.0374ZM6.98047 13.1777H7.00391V12.1777H6.98047V13.1777ZM12.1191 7.43359V6.93359H11.6191V7.43359H12.1191ZM15.7754 7.55078L15.6744 8.04051L15.6802 8.04164L15.7754 7.55078ZM16.7305 7.91992L16.4501 8.33404L16.4575 8.33885L16.7305 7.91992ZM17.3105 8.58789L16.8571 8.79864L16.8583 8.8011L17.3105 8.58789ZM17.3867 10.2812L16.9178 10.1076L16.9151 10.1153L17.3867 10.2812ZM16.5195 11.2422L16.7431 11.6894L16.7464 11.6878L16.5195 11.2422ZM15.7988 11.4531L15.7342 10.9573L15.2988 11.0141V11.4531H15.7988ZM15.7988 11.5117H15.2988V11.9323L15.7132 12.0043L15.7988 11.5117ZM16.5547 11.7168L16.3757 12.1838L16.3851 12.1871L16.5547 11.7168ZM17.1758 12.0801L16.8436 12.4538L16.8483 12.4579L17.1758 12.0801ZM17.5508 14.5645L17.0894 14.3717L17.0882 14.3747L17.5508 14.5645ZM17 15.3438L17.3314 15.7181L17.3318 15.7178L17 15.3438ZM12.1191 16H11.6191V16.5H12.1191V16ZM13.209 11.0664H12.709V11.5664H13.209V11.0664ZM16.0039 10.7207L16.323 11.1058L16.3293 11.1003L16.0039 10.7207ZM16.2969 10.2871L15.8257 10.1196L15.8236 10.1258L16.2969 10.2871ZM13.209 8.36523V7.86523H12.709V8.36523H13.209ZM13.209 11.9805V11.4805H12.709V11.9805H13.209ZM13.209 15.0742H12.709V15.5742H13.209V15.0742ZM15.6289 14.957L15.4708 14.4827L15.4684 14.4835L15.6289 14.957ZM16.1914 14.6289L15.8427 14.2705L15.8379 14.2754L16.1914 14.6289ZM16.502 14.125L16.9782 14.2774L16.979 14.2747L16.502 14.125ZM16.4961 12.8652L16.0227 13.0264L16.0259 13.0353L16.4961 12.8652ZM16.1797 12.3965L15.8412 12.7648L15.8518 12.774L16.1797 12.3965ZM15.5996 12.0918L15.4531 12.5699L15.4602 12.572L15.5996 12.0918ZM12.1191 7.93359H14.457V6.93359H12.1191V7.93359ZM14.457 7.93359C14.9324 7.93359 15.3367 7.97085 15.6744 8.04048L15.8764 7.06108C15.4562 6.97446 14.9817 6.93359 14.457 6.93359V7.93359ZM15.6802 8.04164C16.0141 8.10637 16.2651 8.20871 16.4502 8.33398L17.0108 7.50587C16.688 7.28738 16.3023 7.14363 15.8706 7.05992L15.6802 8.04164ZM16.4575 8.33885C16.6374 8.45603 16.768 8.60677 16.8571 8.79863L17.764 8.37715C17.5953 8.01433 17.3392 7.71975 17.0034 7.50099L16.4575 8.33885ZM16.8583 8.8011C16.9472 8.98962 17.0039 9.24969 17.0039 9.60156H18.0039C18.0039 9.14875 17.9318 8.73304 17.7628 8.37468L16.8583 8.8011ZM17.0039 9.60156C17.0039 9.78904 16.9739 9.95636 16.9178 10.1076L17.8556 10.4549C17.9558 10.1843 18.0039 9.89846 18.0039 9.60156H17.0039ZM16.9151 10.1153C16.862 10.2661 16.786 10.3937 16.6874 10.5029L17.4298 11.1729C17.6203 10.9618 17.763 10.7182 17.8584 10.4472L16.9151 10.1153ZM16.6874 10.5029C16.5884 10.6127 16.4594 10.7117 16.2927 10.7966L16.7464 11.6878C17.0093 11.5539 17.2398 11.3834 17.4298 11.1729L16.6874 10.5029ZM16.2959 10.795C16.1419 10.872 15.9567 10.9283 15.7342 10.9573L15.8635 11.9489C16.1801 11.9076 16.4753 11.8233 16.7431 11.6894L16.2959 10.795ZM15.2988 11.4531V11.5117H16.2988V11.4531H15.2988ZM15.7132 12.0043C15.9537 12.0461 16.1741 12.1064 16.3757 12.1837L16.7337 11.2499C16.4665 11.1475 16.1831 11.071 15.8845 11.0191L15.7132 12.0043ZM16.3851 12.1871C16.5681 12.2532 16.7189 12.343 16.8436 12.4538L17.508 11.7064C17.2811 11.5047 17.0178 11.3523 16.7243 11.2465L16.3851 12.1871ZM16.8483 12.4579C16.9621 12.5565 17.0583 12.6865 17.133 12.859L18.0506 12.4614C17.9222 12.165 17.741 11.9083 17.5032 11.7022L16.8483 12.4579ZM17.133 12.859C17.2003 13.0142 17.2441 13.2276 17.2441 13.5156H18.2441C18.2441 13.1318 18.1864 12.7749 18.0506 12.4614L17.133 12.859ZM17.2441 13.5156C17.2441 13.8511 17.1889 14.1336 17.0894 14.3717L18.0121 14.7572C18.1705 14.3782 18.2441 13.9614 18.2441 13.5156H17.2441ZM17.0882 14.3747C16.9916 14.61 16.8523 14.8064 16.6682 14.9697L17.3318 15.7178C17.6321 15.4514 17.8599 15.1283 18.0134 14.7542L17.0882 14.3747ZM16.6686 14.9694C16.4877 15.1295 16.2585 15.2603 15.9705 15.3552L16.2834 16.305C16.6829 16.1733 17.0357 15.9799 17.3314 15.7181L16.6686 14.9694ZM15.9705 15.3552C15.6861 15.4489 15.3516 15.5 14.9609 15.5V16.5C15.4375 16.5 15.8803 16.4378 16.2834 16.305L15.9705 15.3552ZM14.9609 15.5H12.1191V16.5H14.9609V15.5ZM12.6191 16V7.43359H11.6191V16H12.6191ZM13.209 11.5664H14.6387V10.5664H13.209V11.5664ZM14.6387 11.5664C14.9932 11.5664 15.3145 11.5351 15.5921 11.4621L15.3376 10.495C15.1699 10.5391 14.9404 10.5664 14.6387 10.5664V11.5664ZM15.5921 11.4621C15.865 11.3902 16.1162 11.277 16.3229 11.1057L15.6849 10.3357C15.6182 10.391 15.51 10.4496 15.3376 10.495L15.5921 11.4621ZM16.3293 11.1003C16.5346 10.9244 16.6829 10.7043 16.7701 10.4484L15.8236 10.1258C15.7936 10.2137 15.7467 10.2826 15.6785 10.3411L16.3293 11.1003ZM16.768 10.4546C16.8535 10.2141 16.8906 9.95235 16.8906 9.67773H15.8906C15.8906 9.86406 15.8652 10.0086 15.8258 10.1196L16.768 10.4546ZM16.8906 9.67773C16.8906 9.09701 16.6972 8.57834 16.2193 8.25556L15.6596 9.08428C15.7832 9.16775 15.8906 9.32095 15.8906 9.67773H16.8906ZM16.2193 8.25556C15.7931 7.96777 15.1953 7.86523 14.5156 7.86523V8.86523C15.1328 8.86523 15.4842 8.96582 15.6596 9.08428L16.2193 8.25556ZM14.5156 7.86523H13.209V8.86523H14.5156V7.86523ZM12.709 8.36523V11.0664H13.709V8.36523H12.709ZM12.709 11.9805V15.0742H13.709V11.9805H12.709ZM13.209 15.5742H14.7676V14.5742H13.209V15.5742ZM14.7676 15.5742C15.1452 15.5742 15.4908 15.5318 15.7894 15.4306L15.4684 14.4835C15.3061 14.5385 15.0774 14.5742 14.7676 14.5742V15.5742ZM15.787 15.4314C16.0776 15.3345 16.3378 15.1897 16.545 14.9825L15.8379 14.2754C15.7638 14.3494 15.649 14.4233 15.4708 14.4827L15.787 15.4314ZM16.5401 14.9873C16.7444 14.7885 16.8911 14.5494 16.9782 14.2774L16.0257 13.9726C15.9878 14.0912 15.9275 14.1881 15.8427 14.2705L16.5401 14.9873ZM16.979 14.2747C17.0587 14.0207 17.0957 13.7508 17.0957 13.4688H16.0957C16.0957 13.6633 16.0702 13.8308 16.0249 13.9753L16.979 14.2747ZM17.0957 13.4688C17.0957 13.1989 17.0546 12.9394 16.9663 12.6952L16.0259 13.0353C16.0704 13.1582 16.0957 13.3011 16.0957 13.4688H17.0957ZM16.9694 12.7041C16.878 12.4356 16.7218 12.205 16.5075 12.019L15.8518 12.774C15.9345 12.8458 15.9892 12.9277 16.0228 13.0264L16.9694 12.7041ZM16.518 12.0283C16.3029 11.8306 16.0348 11.6975 15.739 11.6116L15.4602 12.572C15.6487 12.6267 15.7674 12.6967 15.8414 12.7646L16.518 12.0283ZM15.7461 11.6137C15.4412 11.5203 15.0873 11.4805 14.6973 11.4805V12.4805C15.026 12.4805 15.2737 12.5149 15.4531 12.5699L15.7461 11.6137ZM14.6973 11.4805H13.209V12.4805H14.6973V11.4805ZM19.3262 14.9746L19.7929 15.1541L19.795 15.1483L19.3262 14.9746ZM19.4844 14.7227L19.8271 15.0868L19.8326 15.0816L19.8379 15.0762L19.4844 14.7227ZM19.7188 14.582L19.8643 15.0604L19.8737 15.0575L19.883 15.0543L19.7188 14.582ZM20.2988 14.582L20.1346 15.0543L20.1466 15.0585L20.1588 15.062L20.2988 14.582ZM20.5391 14.7227L20.1855 15.0762L20.1909 15.0816L20.1964 15.0868L20.5391 14.7227ZM20.6973 14.9746L20.2284 15.1483L20.2306 15.1541L20.6973 14.9746ZM20.6973 15.7246L21.164 15.9041L21.1661 15.8983L20.6973 15.7246ZM20.2988 16.123L20.1407 15.6487L20.1346 15.6508L20.2988 16.123ZM19.3262 15.7246L18.8573 15.8983L18.8595 15.9041L19.3262 15.7246ZM19.7676 15.3496C19.7676 15.2417 19.7822 15.1817 19.7928 15.1541L18.8595 14.7951C18.792 14.9707 18.7676 15.1607 18.7676 15.3496H19.7676ZM19.795 15.1483C19.8134 15.0986 19.8284 15.0855 19.8271 15.0868L19.1417 14.3586C19.0075 14.4848 18.917 14.6397 18.8573 14.801L19.795 15.1483ZM19.8379 15.0762C19.8463 15.0678 19.853 15.0638 19.8643 15.0604L19.5732 14.1037C19.4048 14.1549 19.2553 14.2447 19.1308 14.3691L19.8379 15.0762ZM19.883 15.0543C19.9146 15.0433 19.9561 15.0352 20.0117 15.0352V14.0352C19.8564 14.0352 19.7026 14.0583 19.5545 14.1098L19.883 15.0543ZM20.0117 15.0352C20.0612 15.0352 20.101 15.0426 20.1346 15.0543L20.4631 14.1098C20.317 14.059 20.1654 14.0352 20.0117 14.0352V15.0352ZM20.1588 15.062C20.1752 15.0668 20.1809 15.0716 20.1855 15.0762L20.8926 14.3691C20.7644 14.2409 20.6099 14.1519 20.4388 14.102L20.1588 15.062ZM20.1964 15.0868C20.195 15.0855 20.21 15.0986 20.2284 15.1483L21.1661 14.801C21.1064 14.6397 21.0159 14.4848 20.8817 14.3586L20.1964 15.0868ZM20.2306 15.1541C20.2412 15.1817 20.2559 15.2417 20.2559 15.3496H21.2559C21.2559 15.1607 21.2315 14.9707 21.1639 14.7951L20.2306 15.1541ZM20.2559 15.3496C20.2559 15.451 20.2419 15.5144 20.2284 15.551L21.1661 15.8983C21.2307 15.7239 21.2559 15.5373 21.2559 15.3496H20.2559ZM20.2306 15.5451C20.2127 15.5917 20.1952 15.6133 20.1855 15.623L20.8926 16.3301C21.0157 16.207 21.1037 16.0607 21.1639 15.9041L20.2306 15.5451ZM20.1855 15.623C20.1769 15.6317 20.1648 15.6407 20.1407 15.6487L20.4569 16.5974C20.6204 16.5429 20.7684 16.4543 20.8926 16.3301L20.1855 15.623ZM20.1346 15.6508C20.101 15.6625 20.0612 15.6699 20.0117 15.6699V16.6699C20.1654 16.6699 20.317 16.6461 20.4631 16.5953L20.1346 15.6508ZM20.0117 15.6699C19.9561 15.6699 19.9146 15.6618 19.883 15.6508L19.5545 16.5953C19.7026 16.6468 19.8564 16.6699 20.0117 16.6699V15.6699ZM19.883 15.6508C19.8635 15.644 19.8503 15.6354 19.8379 15.623L19.1308 16.3301C19.2513 16.4506 19.3944 16.5396 19.5545 16.5953L19.883 15.6508ZM19.8379 15.623C19.8282 15.6133 19.8107 15.5917 19.7928 15.5451L18.8595 15.9041C18.9197 16.0607 19.0077 16.207 19.1308 16.3301L19.8379 15.623ZM19.795 15.551C19.7815 15.5144 19.7676 15.451 19.7676 15.3496H18.7676C18.7676 15.5373 18.7927 15.7239 18.8573 15.8983L19.795 15.551Z" fill="black"/>
</svg>
